<svg width="32" height="32" viewBox="0 0 32 32" fill="none" xmlns="http://www.w3.org/2000/svg">
<path d="M0 16C0 7.16344 7.16344 0 16 0C24.8366 0 32 7.16344 32 16C32 24.8366 24.8366 32 16 32C7.16344 32 0 24.8366 0 16Z" fill="#51A54F"/>
<path d="M6.66602 15.4082H7.61621C8.21322 15.3991 8.68262 15.2419 9.02441 14.9365C9.36621 14.6312 9.53711 14.2188 9.53711 13.6992C9.53711 12.5326 8.95605 11.9492 7.79395 11.9492C7.24707 11.9492 6.80957 12.1064 6.48145 12.4209C6.15788 12.7308 5.99609 13.1432 5.99609 13.6582H4.73145C4.73145 12.8698 5.01855 12.2158 5.59277 11.6963C6.17155 11.1722 6.90527 10.9102 7.79395 10.9102C8.73275 10.9102 9.46875 11.1585 10.002 11.6553C10.5352 12.152 10.8018 12.8424 10.8018 13.7266C10.8018 14.1595 10.6605 14.5788 10.3779 14.9844C10.0999 15.39 9.7194 15.693 9.23633 15.8936C9.7832 16.0667 10.2048 16.3538 10.501 16.7549C10.8018 17.1559 10.9521 17.6458 10.9521 18.2246C10.9521 19.1178 10.6605 19.8265 10.0771 20.3506C9.49381 20.8747 8.73503 21.1367 7.80078 21.1367C6.86654 21.1367 6.10547 20.8838 5.51758 20.3779C4.93424 19.8721 4.64258 19.2044 4.64258 18.375H5.91406C5.91406 18.8991 6.08496 19.3184 6.42676 19.6328C6.76855 19.9473 7.22656 20.1045 7.80078 20.1045C8.41146 20.1045 8.87858 19.945 9.20215 19.626C9.52572 19.307 9.6875 18.849 9.6875 18.252C9.6875 17.6732 9.50977 17.2288 9.1543 16.9189C8.79883 16.609 8.28613 16.4495 7.61621 16.4404H6.66602V15.4082Z" fill="white"/>
<path d="M17.6514 11.04V12.1133H17.4189C16.4346 12.1315 15.6507 12.4232 15.0674 12.9883C14.484 13.5534 14.1468 14.3486 14.0557 15.374C14.5798 14.7725 15.2952 14.4717 16.2021 14.4717C17.068 14.4717 17.7585 14.777 18.2734 15.3877C18.793 15.9984 19.0527 16.7868 19.0527 17.7529C19.0527 18.7783 18.7725 19.5986 18.2119 20.2139C17.6559 20.8291 16.9085 21.1367 15.9697 21.1367C15.0173 21.1367 14.2448 20.7721 13.6523 20.043C13.0599 19.3092 12.7637 18.3659 12.7637 17.2129V16.7275C12.7637 14.8955 13.1533 13.4964 13.9326 12.5303C14.7165 11.5596 15.8809 11.0628 17.4258 11.04H17.6514ZM15.9902 15.5244C15.5573 15.5244 15.1585 15.6543 14.7939 15.9141C14.4294 16.1738 14.1764 16.4997 14.0352 16.8916V17.3564C14.0352 18.1768 14.2197 18.8376 14.5889 19.3389C14.958 19.8402 15.4183 20.0908 15.9697 20.0908C16.5394 20.0908 16.986 19.8812 17.3096 19.4619C17.6377 19.0426 17.8018 18.4935 17.8018 17.8145C17.8018 17.1309 17.6354 16.5794 17.3027 16.1602C16.9746 15.7363 16.5371 15.5244 15.9902 15.5244Z" fill="white"/>
<path d="M21.1309 16.0098L21.6367 11.0469H26.7363V12.2158H22.71L22.4092 14.9297C22.8968 14.6426 23.4505 14.499 24.0703 14.499C24.9772 14.499 25.6973 14.7998 26.2305 15.4014C26.7637 15.9984 27.0303 16.8073 27.0303 17.8281C27.0303 18.8535 26.7523 19.6624 26.1963 20.2549C25.6449 20.8428 24.8724 21.1367 23.8789 21.1367C22.9993 21.1367 22.2816 20.8929 21.7256 20.4053C21.1696 19.9176 20.8529 19.2432 20.7754 18.3818H21.9717C22.0492 18.9515 22.252 19.3822 22.5801 19.6738C22.9082 19.9609 23.3411 20.1045 23.8789 20.1045C24.4668 20.1045 24.9271 19.904 25.2598 19.5029C25.597 19.1019 25.7656 18.5482 25.7656 17.8418C25.7656 17.1764 25.5833 16.6432 25.2188 16.2422C24.8587 15.8366 24.3779 15.6338 23.7764 15.6338C23.2249 15.6338 22.792 15.7546 22.4775 15.9961L22.1426 16.2695L21.1309 16.0098Z" fill="white"/>
</svg>
