<svg width="1500" height="1500" viewBox="0 0 1500 1500" fill="none" xmlns="http://www.w3.org/2000/svg">
<rect width="8995" height="8561" transform="translate(-1332 -5394)" fill="white"/>
<path d="M6344.61 -1391.14V2281.43L-15.3958 2282.93C-15.3958 2282.93 -15.9158 -2055.2 -15.3958 -2055.32C202.075 -2105.34 426.651 -2137.11 651.103 -2149.62C838.404 -2160.05 1025.71 -2157.09 1208.66 -2140.11C1740.92 -2090.74 2132.31 -1914.41 2593.18 -1622.22C3342.77 -1146.98 4004.71 -1586.59 4738.76 -1723.19C5655.46 -1893.78 6344.59 -1391.14 6344.59 -1391.14L6344.61 -1391.14Z" fill="#DEF0FF"/>
<path d="M2796.21 1123.71H524.037V2275.21H2796.21V1123.71Z" fill="#D5E5FB"/>
<path d="M2860.89 1123.71H446.069V1183.04H2860.89V1123.71Z" fill="#B0D0FF"/>
<path d="M633.109 1693.7H1617.75V1256.78H633.109V1693.7ZM1629.85 1705.19H621.023V1245.27H1629.85V1705.19Z" fill="#B0D0FF"/>
<path d="M1198.06 1328.11H1052.79C1045.58 1328.11 1039.69 1322.51 1039.69 1315.67C1039.69 1308.79 1045.58 1303.19 1052.79 1303.19H1198.06C1205.26 1303.19 1211.16 1308.79 1211.16 1315.67C1211.16 1322.51 1205.26 1328.11 1198.06 1328.11Z" fill="#B0D0FF"/>
<path d="M901.987 873.036H837.078C830.054 873.036 824.302 867.547 824.302 860.87C824.302 854.165 830.054 848.704 837.078 848.704H901.987C909.014 848.704 914.763 854.165 914.763 860.87C914.763 867.547 909.014 873.036 901.987 873.036Z" fill="#95B3EF"/>
<path d="M1355.74 873.036H1290.84C1283.83 873.036 1278.06 867.547 1278.06 860.87C1278.06 854.165 1283.83 848.704 1290.84 848.704H1355.74C1362.78 848.704 1368.52 854.165 1368.52 860.87C1368.52 867.547 1362.78 873.036 1355.74 873.036Z" fill="#9FD0F7"/>
<path d="M1259.21 1125H942.031C912.382 1125 888.342 1102.14 888.342 1073.9V771.259H1312.9V1073.9C1312.9 1102.14 1288.88 1125 1259.21 1125Z" fill="#9FD0F7"/>
<path d="M1314.62 784.187H886.629C882.349 784.187 878.847 780.848 878.847 776.774C878.847 772.7 882.349 769.361 886.629 769.361H1314.62C1318.9 769.361 1322.41 772.7 1322.41 776.774C1322.41 780.848 1318.9 784.187 1314.62 784.187Z" fill="#9FD0F7"/>
<path fill-rule="evenodd" clip-rule="evenodd" d="M1314.62 769.369H886.63C886.63 769.369 701.807 574.634 792.468 391.14C883.125 207.646 561.176 25.4963 815.078 -295.228H1644.68C1644.68 -295.228 1368.16 -110.762 1467.89 48.442C1567.6 207.646 1730.79 360.25 1544.94 482.94C1359.09 605.635 1314.62 769.37 1314.62 769.37L1314.62 769.369Z" fill="white" fill-opacity="0.5"/>
<path d="M588.279 665.234C558.029 720.178 371.713 889.452 381.806 909.511C390.995 927.759 379.995 1105.01 375.37 1173.05V1173.2C374.252 1189.46 373.527 1199.45 373.527 1199.45C367.421 1213.31 350.801 1219.34 338.441 1221.92C330.218 1223.67 323.874 1223.87 323.874 1223.87C323.874 1223.87 321.303 1214.84 317.165 1199.48C309.46 1170.9 296.341 1120.35 284.436 1065.63C265.848 980.213 250.223 884.556 262.706 845.881C417.469 365.902 576.231 522.153 576.231 522.153C576.231 522.153 618.532 610.304 588.279 665.234V665.234Z" fill="white"/>
<path d="M375.37 1173.08V1173.23C374.252 1189.49 373.527 1199.48 373.527 1199.48C367.421 1213.34 350.801 1219.37 338.441 1221.94C331.428 1215.47 324.115 1208 317.165 1199.51C309.46 1170.93 296.341 1120.37 284.436 1065.66C300.815 967.199 365.456 820.588 365.456 820.588L375.37 1173.08V1173.08Z" fill="#DFE8FA"/>
<path d="M291.499 2197.86C291.499 2197.86 325.105 2208.56 351.348 2208.56C380.617 2208.56 407.222 2200.98 407.222 2200.98C407.222 2200.98 413.548 2142.72 448.37 2014.41C466.628 1947.14 492.698 1860.67 529.789 1753.19C632.343 1456.21 663.529 1282.46 666.374 1266.02C666.525 1265.15 666.585 1264.72 666.585 1264.72L666.252 1264.58L350.964 1132.82C350.964 1132.82 389.93 1542.13 340.215 1699.26C333.251 1721.22 327.287 1746.8 322.168 1774.52C290.771 1945.18 291.499 2197.86 291.499 2197.86V2197.86Z" fill="#4850E1"/>
<path d="M322.168 1774.53L448.37 2014.42C466.628 1947.14 492.698 1860.68 529.788 1753.19C632.343 1456.21 663.529 1282.46 666.374 1266.03C666.344 1265.52 666.314 1265.07 666.252 1264.58L350.964 1132.83C350.964 1132.83 389.93 1542.13 340.215 1699.27C333.25 1721.22 327.287 1746.8 322.168 1774.53V1774.53Z" fill="#3F47D6"/>
<path d="M722.881 1142.45C722.881 1142.45 726.978 1407.7 678.755 1733.37C630.538 2059.05 646.882 2197.28 646.882 2197.28C646.882 2197.28 613.755 2207.5 600.384 2208.54C566.322 2211.17 531.396 2200.96 531.396 2200.96C531.396 2200.96 462.38 1875.14 482.166 1712.15C501.955 1549.13 387.659 1152.78 387.659 1152.78L722.881 1142.46V1142.45Z" fill="#4850E1"/>
<path d="M493.249 511.256L548.534 557.461L638.906 553.673C638.692 546.744 637.037 517.923 635.509 491.814C635.413 490.272 635.316 488.733 635.232 487.228C633.903 465.01 632.741 445.921 632.741 445.921L555.621 400.336L526.867 383.341C526.881 383.805 525.686 407.644 525.496 411.118C522.205 472.886 493.249 511.256 493.249 511.256V511.256Z" fill="#FFB5AE"/>
<path d="M741.262 1153.93C739.999 1293.95 730.196 1621.46 722.975 1628.14C646.36 1698.53 309.354 1608.85 291.485 1531.3C273.641 1453.75 359.387 536.975 490.254 500.364C517.405 492.781 638.908 566.203 638.908 566.203C638.908 566.203 685.35 594.14 700.291 666.37C705.822 693.134 723.893 884.08 734.437 1011.68C737.22 1045.69 739.503 1075.2 740.843 1095.88C741.387 1104.45 741.512 1125.27 741.262 1153.93V1153.93Z" fill="white"/>
<path d="M531.51 413.037C545.252 444.581 608.817 478.8 635.509 491.826C635.413 490.284 635.316 488.745 635.232 487.239C633.903 465.021 632.741 445.933 632.741 445.933L555.621 400.348C537.479 397.669 525.838 400.054 531.51 413.037V413.037Z" fill="#FAA39E"/>
<path d="M661.257 449.039C661.257 449.039 521.711 461.386 514.968 378.56C508.229 295.734 485.676 241.545 574.487 230.158C663.299 218.773 683.204 249.102 692.518 276.226C701.834 303.352 697.384 443.695 661.257 449.039Z" fill="#FFB5AE"/>
<path d="M676.925 274.685L633.431 338.697C614.605 330.766 605.566 334.284 602.337 362.202C599.112 390.125 550.958 420.007 528.413 391.049C528.413 391.049 441.783 245.556 464.777 220.713C501.12 181.442 588.894 191.848 650.807 197.136C715.343 202.651 724.095 269.522 676.925 274.685V274.685Z" fill="#163560"/>
<path d="M741.262 1153.93C507.408 929.997 494.272 706.034 494.272 706.034C619.032 773.03 693.206 774.162 731.649 895.877C734.432 929.884 739.503 1075.19 740.843 1095.88C741.387 1104.45 741.512 1125.27 741.262 1153.93V1153.93Z" fill="#DFE8FA"/>
<path d="M1144.8 769.369L1221.87 557.394C1221.87 557.394 1247.06 519.536 1288.35 526.247C1329.66 532.957 1248.07 559.804 1242 567.474C1235.97 575.144 1163.69 769.369 1163.69 769.369H1144.8Z" fill="#163560"/>
<path d="M1115.71 719.41C1115.71 719.41 1127.68 705.604 1132.08 699.973C1137.87 691.882 1164.22 683.168 1197.05 679.065C1197.05 679.065 1221.98 682.036 1206.87 703.51C1196.78 717.857 1197.95 709.398 1183.37 729.397C1168.8 749.4 1145.71 761.343 1127.29 757.407L1106.31 761.06L1090.47 729.794L1115.71 719.41V719.41Z" fill="#FFB5AE"/>
<path d="M477.859 580.544C477.859 580.544 308.693 728.963 814.758 940.619C892 972.929 1132.08 767.837 1132.08 767.837C1132.08 767.837 1128.94 729.954 1109.42 713.176C1109.42 713.176 868.845 797.43 842.648 800.147C819.407 802.523 683.283 599.101 638.906 553.666C594.53 508.228 477.859 580.544 477.859 580.544Z" fill="white"/>
<path d="M693.09 206.026C693.09 206.026 667.918 415.902 524.751 420.732L459.364 334.476C459.364 334.476 605.221 284.648 591.119 170.542L693.09 206.026V206.026Z" fill="white"/>
<path d="M494.773 104.924C494.773 104.924 556.486 88.5227 599.801 121.752C643.118 154.981 643.998 208.539 615.086 242.966C606.147 253.609 625.368 303.607 597.461 337.943C569.553 372.279 516.614 375.052 491.051 368.604C467.621 362.691 425.95 400.732 383.711 364.275C334.213 321.547 356.737 241.426 356.737 241.426C356.737 241.426 379.095 113.678 494.773 104.924V104.924Z" fill="#9FD0F7"/>
<path d="M627.313 510.319C625.588 509.627 527.407 459.877 515.962 463.475C504.514 467.072 490.249 500.341 490.249 500.341L648.148 563.849C648.148 563.849 649.331 519.141 627.313 510.319Z" fill="#DFE8FA"/>
</svg>
