<svg width="1500" height="1500" viewBox="0 0 1500 1500" fill="none" xmlns="http://www.w3.org/2000/svg">
<rect width="8995" height="8561" transform="translate(-3945 -5306)" fill="white"/>
<path d="M3731.61 -1303.14V2369.43L-2628.4 2370.93C-2628.4 2370.93 -2628.92 -1967.2 -2628.4 -1967.32C-2410.93 -2017.34 -2186.35 -2049.11 -1961.9 -2061.62C-1774.6 -2072.05 -1587.29 -2069.09 -1404.34 -2052.11C-872.076 -2002.74 -480.69 -1826.41 -19.82 -1534.22C729.774 -1058.98 1391.71 -1498.59 2125.76 -1635.19C3042.46 -1805.78 3731.59 -1303.14 3731.59 -1303.14L3731.61 -1303.14Z" fill="#DEF0FF"/>
<path d="M183.208 1211.71H-2088.96V2363.21H183.208V1211.71Z" fill="#D5E5FB"/>
<path d="M247.892 1211.71H-2166.93V1271.04H247.892V1211.71Z" fill="#B0D0FF"/>
<path d="M-902.146 1781.7H82.4919V1344.78H-902.146V1781.7V1781.7ZM94.5903 1793.19H-914.244V1333.27H94.5903V1793.19Z" fill="#B0D0FF"/>
<path d="M1499.59 605.582H586.924V2363.2H1499.59V605.582Z" fill="#C3E4FF"/>
<path d="M681.779 2293.54H1408.87V685.154H681.779V2293.54ZM1421.47 2305.53H669.176V673.16H1421.47V2305.53Z" fill="#9FD0F7"/>
<path d="M953.659 2316.26C926.013 2324.63 873.16 2350.27 839.568 2338.21C817.868 2330.43 696.583 1996.53 688.735 1850.45C688.14 1839.84 685.94 1825.02 682.522 1806.94C675.328 1769.25 662.753 1717.45 648.306 1660.3C609.483 1507.15 556.986 1315.56 558.116 1254.33C559.869 1159.3 855.74 1234.41 855.74 1234.41C855.74 1234.41 876.073 1312.39 880.145 1425.25C888.171 1649.32 910.259 2027.79 970.336 2290.63C972.863 2301.78 965.134 2312.78 953.659 2316.26V2316.26Z" fill="#38BDEB"/>
<path d="M748.339 1254.64L603.392 2317.11C603.392 2317.11 509.603 2341.81 456.184 2329.19C456.184 2329.19 424.05 1762.83 427.855 1624.14C431.69 1485.43 395.007 1252.95 436.238 1227.31C477.469 1201.68 748.339 1254.64 748.339 1254.64V1254.64Z" fill="#38BDEB"/>
<path d="M693.908 569.855C693.908 569.855 829.878 591.961 860.913 637.502C905.295 702.641 996.704 985.123 1007.44 1019.56C1051.37 1160.25 849.469 1224.73 828.957 1166.82C811.894 1118.72 770.157 817.55 739.836 724.097L693.908 569.855V569.855Z" fill="white"/>
<path d="M970.785 1592.35C970.785 1592.35 857.943 1647.86 731.039 1658.81C716.741 1662.32 473.071 1662.32 369.919 1628.56C367.749 1627.88 375.3 1420.08 384.039 1205.68C384.039 1205.34 384.069 1205.03 384.069 1204.69C384.961 1182.9 385.853 1161 386.745 1139.27C387.131 1129.94 387.517 1120.63 387.904 1111.35C390.579 1047.41 393.225 985.504 395.632 931.239C400.389 824.662 404.224 747.424 405.294 741.284C409.099 720.432 412.607 702.656 416.471 687.256C427.708 642.314 441.68 617.694 472.15 596.526C475.122 594.362 499.468 582.663 520.961 572.5C538.767 564.097 554.581 556.725 554.581 556.725H554.612C554.612 556.725 789.125 563.093 811.628 619.075C834.162 675.089 970.785 1592.35 970.785 1592.35V1592.35Z" fill="white"/>
<path d="M673.514 584.439C661.238 586.731 645.423 597.527 630.44 596.495C601.16 594.466 570.63 575.711 544.769 559.488C562.396 519.392 569.62 487.735 572.206 467.249C572.354 466.16 572.474 465.104 572.563 464.086C573.722 453.467 573.573 446.265 573.009 442.958H666.915C666.915 442.958 692.599 454.13 692.599 461.851C692.599 465.982 692.629 469.931 692.718 473.703C692.896 483.982 693.343 492.953 693.907 500.66C695.69 525.738 698.693 537.553 698.693 537.553C698.693 537.553 710.197 577.595 673.514 584.439V584.439Z" fill="#FFB5AE"/>
<path d="M693.908 500.674C622.743 513.759 581.452 476.756 572.207 467.264C570.869 465.906 570.216 465.102 570.216 465.102C570.959 464.743 571.731 464.423 572.564 464.1C599.05 453.892 659.158 462.009 692.719 473.717C692.898 483.995 693.344 492.967 693.908 500.674Z" fill="#FAA39E"/>
<path d="M548.962 428.282C561.685 493.406 649.973 491.267 688.113 487.173C698.844 486.036 705.622 484.731 705.622 484.731C717.721 481.653 724.468 463.504 727.619 439.733C733.833 392.682 725.955 323.621 717.631 305.955C705.057 279.376 681.365 250.628 592.452 271.37C503.539 292.128 532.642 344.848 548.962 428.282Z" fill="#FFB5AE"/>
<path d="M720.93 269.632C708.772 253.619 682.999 234.055 659.603 222.005C609.336 196.12 544.977 222.819 544.71 222.932C472.087 253.319 526.399 424.997 548.574 417.967C565.876 412.477 544.353 384.228 551.904 377.777C561 369.994 573.812 379.449 577.915 386.717C581.482 391.853 587.874 393.654 593.848 390.064C616.441 376.467 601.755 349.267 623.367 332.625C644.949 315.983 688.796 329.957 721.198 316.693C763.588 301.654 730.086 281.696 720.93 269.632Z" fill="#411F38"/>
<path d="M666.918 442.972C666.918 442.972 678.571 453.069 697.358 449.943C708.506 448.087 714.719 434.303 714.719 434.303C714.719 434.303 693.315 430.639 666.918 442.972V442.972Z" fill="white"/>
<path d="M570.217 735.02C570.217 728.626 575.656 723.42 582.404 723.42C589.123 723.42 594.592 728.626 594.592 735.02C594.592 741.443 589.123 746.62 582.404 746.62C575.656 746.62 570.217 741.443 570.217 735.02Z" fill="#233862"/>
<path d="M714.72 723.423C714.72 717.015 720.189 711.82 726.907 711.82C733.656 711.82 739.125 717.015 739.125 723.423C739.125 729.816 733.656 735.022 726.907 735.022C720.189 735.022 714.72 729.816 714.72 723.423Z" fill="#233862"/>
<path d="M585.736 873.066C585.736 866.672 591.177 861.467 597.925 861.467C604.643 861.467 610.113 866.672 610.113 873.066C610.113 879.489 604.643 884.667 597.925 884.667C591.177 884.667 585.736 879.489 585.736 873.066Z" fill="#233862"/>
<path d="M730.234 861.469C730.234 855.075 735.705 849.869 742.423 849.869C749.17 849.869 754.611 855.075 754.611 861.469C754.611 867.891 749.17 873.069 742.423 873.069C735.705 873.069 730.234 867.891 730.234 861.469Z" fill="#233862"/>
<path d="M594.592 1007.95C594.592 1001.56 600.032 996.35 606.781 996.35C613.499 996.35 618.968 1001.56 618.968 1007.95C618.968 1014.34 613.499 1019.55 606.781 1019.55C600.032 1019.55 594.592 1014.34 594.592 1007.95Z" fill="#233862"/>
<path d="M739.126 996.353C739.126 989.93 744.566 984.753 751.314 984.753C758.032 984.753 763.502 989.93 763.502 996.353C763.502 1002.75 758.032 1007.95 751.314 1007.95C744.566 1007.95 739.126 1002.75 739.126 996.353Z" fill="#233862"/>
<path d="M623.398 1151.15C623.398 1151.15 516.232 1193.87 384.067 1204.68C384.96 1182.9 385.851 1161 386.743 1139.27C387.13 1129.93 387.516 1120.62 387.902 1111.34C390.577 1047.4 393.223 985.499 395.631 931.234C426.191 884.042 451.726 849.865 451.726 849.865C451.726 849.865 449.288 979.359 506.571 1019.53C658.148 1125.83 623.398 1151.15 623.398 1151.15Z" fill="#DFE8FA"/>
<path d="M585.737 1147.87C585.737 1147.87 292.929 1171.01 268.227 1102.6C220.812 971.41 345.159 653.129 378.334 618.559C417.068 578.194 487.788 564.036 526.849 559.176C528.484 558.978 530.03 558.783 531.546 558.604C545.279 557.048 554.078 556.728 554.584 556.709C554.584 556.709 551.522 566.076 546.409 581.966C544.417 588.116 542.099 595.248 539.572 603.201C515.582 677.959 434.071 884.638 409.904 984.708C394.535 1048.37 592.188 1091.82 595.904 1092.08L585.737 1147.87V1147.87Z" fill="white"/>
<path d="M657.047 215.151C657.047 215.151 665.014 149.091 619.978 110.409C574.942 71.7311 514.181 80.0288 480.203 115.572C469.71 126.564 409.84 115.457 375.773 149.956C341.736 184.456 347.681 239.185 359.394 264.272C370.096 287.271 334.215 336.511 382.729 373.532C439.566 416.916 526.338 380.064 526.338 380.064C526.338 380.064 590.875 215.672 657.047 215.151V215.151Z" fill="#9FD0F7"/>
<path d="M725.6 274.792C725.6 274.792 538.857 290.471 548.964 428.283L473.339 325.967C473.339 325.967 478.898 194.492 653.75 192.676L725.6 274.792Z" fill="white"/>
<path d="M528.033 559.254C528.033 559.254 543.877 534.764 559.93 521.379C559.93 521.379 624.764 561.755 627.736 571.932C630.709 582.109 624.764 603.467 624.764 603.467C624.764 603.467 584.9 606.777 528.033 559.254V559.254Z" fill="#DFE8FA"/>
<path d="M698.099 535.75C698.099 535.75 722.297 553.99 716.56 573.255C716.56 573.255 656.155 639.945 554.728 653.455C554.728 653.455 561.327 635.676 576.071 625.163C590.816 614.649 685.109 564.855 698.099 535.75V535.75Z" fill="#BECEEA"/>
<path d="M581.54 1096.97C581.54 1096.97 609.632 1092.5 622.949 1099.69C636.266 1106.88 669.501 1111.26 668.045 1118.56C666.559 1125.86 625.03 1129.03 614.031 1125.44C603.062 1121.84 581.54 1096.97 581.54 1096.97Z" fill="#FFB5AE"/>
<path d="M709.638 1103.12L861.452 1059.98C861.452 1059.98 861.095 1079.73 845.399 1087.25C825.423 1096.87 725.066 1124.74 725.066 1124.74L709.638 1103.12V1103.12Z" fill="#B0D0FF"/>
<path d="M604.61 1119.7L711.151 1091.55C716.799 1090.05 722.804 1092.17 726.103 1096.78L737.043 1112.09C742.453 1119.67 738.202 1130.03 728.838 1132.09C699.557 1138.51 646.02 1150.11 631.988 1152.04C612.013 1154.78 594.443 1148.61 594.592 1132.06C594.622 1126.26 598.754 1121.26 604.61 1119.7Z" fill="#2C3A64"/>
<path d="M575.656 1100.61C562.726 1108.56 561.239 1126.04 572.654 1135.89C590.907 1151.62 614.51 1171.79 620.307 1175.78C630.087 1182.54 657.733 1187.07 671.288 1169.61C676.312 1163.16 669.98 1141.88 655.622 1129.01C641.264 1116.14 581.543 1096.98 581.543 1096.98L575.656 1100.61V1100.61Z" fill="#FFB5AE"/>
<path d="M934.847 1158.18C933.45 1164.8 931.756 1170.54 929.794 1175.52C914.425 1214 882.469 1205.68 851.226 1205.68C816 1205.68 816.06 1183.22 816.06 1152.86C816.06 1122.47 835.59 1098.34 870.816 1098.34C906.072 1098.34 941.09 1128.39 934.847 1158.18V1158.18Z" fill="#E09927"/>
<path d="M794.596 1162.69C794.388 1131.91 817.902 1107.18 849.293 1098.97C881.308 1090.6 907.914 1111.08 907.855 1140.93C907.825 1170.92 880.655 1200.6 848.164 1204.59C816.742 1208.47 794.834 1192.59 794.596 1162.69Z" fill="#FFA412"/>
<path d="M797.416 1161.93C797.208 1132.7 819.562 1109.22 849.378 1101.41C879.818 1093.46 905.086 1112.92 905.026 1141.27C904.996 1169.76 879.194 1197.97 848.308 1201.76C818.462 1205.44 797.624 1190.36 797.416 1161.93V1161.93Z" fill="#FFDA9F"/>
<path d="M851.729 1144.82L843.019 1113.56C842.365 1111.24 844.268 1108.5 846.913 1107.93C850.154 1107.28 854.612 1106.54 859.339 1106.4C864.809 1106.23 869.387 1106.66 872.567 1107.14C875.035 1107.51 876.016 1110.14 874.559 1112.46L854.434 1144.77C853.721 1145.93 852.056 1145.96 851.729 1144.82V1144.82Z" fill="#FFB93E"/>
<path d="M844.178 1154.43L811.449 1173.9C809.011 1175.37 806.246 1174.46 805.771 1172.06C805.176 1169.14 804.582 1165.07 804.582 1160.51C804.582 1155.22 805.176 1150.58 805.771 1147.33C806.246 1144.81 809.011 1142.92 811.36 1143.51L844.207 1151.83C845.396 1152.14 845.367 1153.72 844.178 1154.43V1154.43Z" fill="#FFB93E"/>
<path d="M846.202 1148.63L813.83 1140.43C811.422 1139.83 810.679 1137.06 812.284 1134.74C814.246 1131.94 817.13 1128.18 820.697 1124.47C824.829 1120.2 828.753 1116.86 831.606 1114.65C833.836 1112.93 836.749 1113.41 837.522 1115.64L848.254 1146.54C848.64 1147.64 847.391 1148.91 846.202 1148.63V1148.63Z" fill="#FFB93E"/>
<path d="M849.323 1157.36L839.305 1191.76C838.562 1194.31 835.648 1195.98 833.33 1195.19C830.506 1194.2 826.73 1192.67 823.044 1190.43C818.764 1187.86 815.493 1185.14 813.323 1183.1C811.629 1181.52 812.283 1178.49 814.631 1176.99L847.242 1156.06C848.401 1155.29 849.679 1156.09 849.323 1157.36Z" fill="#FFB93E"/>
<path d="M857.261 1145.76L879.14 1114.95C880.745 1112.66 883.896 1112.04 885.59 1113.68C887.642 1115.69 890.287 1118.6 892.606 1122.17C895.281 1126.27 897.035 1130.2 898.105 1133.03C898.937 1135.24 897.213 1138.01 894.627 1138.69L858.539 1147.83C857.261 1148.17 856.458 1146.89 857.261 1145.76V1145.76Z" fill="#FFB93E"/>
<path d="M858.566 1150.68L894.178 1144.77C896.824 1144.34 898.756 1146.35 898.102 1148.93C897.33 1152.07 896.051 1156.34 894.06 1160.87C891.77 1166.1 889.243 1170.43 887.311 1173.43C885.854 1175.75 882.733 1176.48 881.039 1174.93L857.406 1153.23C856.544 1152.46 857.258 1150.88 858.566 1150.68V1150.68Z" fill="#FFB93E"/>
<path d="M855.353 1155.89L874.557 1180.9C876.013 1182.77 874.973 1185.8 872.506 1187.13C869.443 1188.71 865.192 1190.75 860.466 1192.36C854.996 1194.23 850.21 1195.28 846.852 1195.84C844.236 1196.3 842.362 1194.29 843.046 1191.77L852.648 1156.8C853.005 1155.55 854.669 1154.99 855.353 1155.89V1155.89Z" fill="#FFB93E"/>
<path d="M595.903 1092.11C595.903 1092.11 608.121 1124.76 585.736 1147.91L528.008 1126.04L543.912 1098.34L595.903 1092.11Z" fill="white"/>
<path d="M1013.68 1043.56C1013.68 1043.56 1016.89 1146.52 966.442 1168.02C966.442 1168.02 976.728 1141.17 956.483 1099.66C936.239 1058.16 1013.68 1043.56 1013.68 1043.56Z" fill="white"/>
<path d="M942.989 1106.4C942.989 1106.4 891.383 1096.53 902.858 1106.4C914.332 1116.28 925.391 1122.47 926.609 1131.19C931.068 1163.3 898.072 1200.36 917.811 1199.15C937.578 1197.93 964.452 1174.64 974.261 1159.03C984.071 1143.38 977.264 1113.5 942.989 1106.4Z" fill="#FFB5AE"/>
<path d="M2933.05 1205.68H-550.69V1306.46H2933.05V1205.68Z" fill="#233862"/>
<path d="M1225.63 1030.03C1226.32 1126.87 1309.02 1205.19 1410.95 1205.19C1512.88 1205.19 1595.55 1126.87 1596.27 1030.03H1225.63V1030.03Z" fill="#38BDEB"/>
<path d="M1499.86 1175.92H1308.71V1205.18H1499.86V1175.92Z" fill="#38BDEB"/>
<path d="M68.3379 1133.4C68.605 1173.1 102.494 1205.18 144.289 1205.18C186.056 1205.18 219.944 1173.1 220.241 1133.4H68.3379V1133.4Z" fill="#38BDEB"/>
<path d="M180.705 1193.2H102.375V1205.2H180.705V1193.2Z" fill="#38BDEB"/>
</svg>
