<svg width="1500" height="1500" viewBox="0 0 1500 1500" fill="none" xmlns="http://www.w3.org/2000/svg">
<rect width="8995" height="8561" transform="translate(-6001 -5302)" fill="white"/>
<path d="M1675.61 -1299.14V2373.43L-4684.4 2374.93C-4684.4 2374.93 -4684.92 -1963.2 -4684.4 -1963.32C-4466.93 -2013.34 -4242.35 -2045.11 -4017.9 -2057.62C-3830.6 -2068.05 -3643.29 -2065.09 -3460.34 -2048.11C-2928.08 -1998.74 -2536.69 -1822.41 -2075.82 -1530.22C-1326.23 -1054.98 -664.288 -1494.59 69.7553 -1631.19C986.461 -1801.78 1675.59 -1299.14 1675.59 -1299.14L1675.61 -1299.14Z" fill="#DEF0FF"/>
<path d="M1675.61 2191.29C1681.02 2183.85 1678.12 -31.336 1675.61 -34.5573C1593.33 -140.309 1505.48 -229.626 1413.07 -304.71C1407.69 -309.109 1402.28 -313.451 1396.84 -317.709C1377.42 -333.098 1357.75 -347.853 1337.92 -362.005H-489.71V2367.2H1531.89C1541.13 2357.47 1560.13 2336.93 1585.66 2306.54C1589.17 2302.41 1592.77 2298.05 1596.48 2293.56C1619.22 2266.02 1646.22 2231.74 1675.61 2191.29L1675.61 2191.29Z" fill="#C3E4FF"/>
<path d="M902.905 -242.289H-334.051V2300.02H902.905V-242.289Z" fill="#EAF2FD"/>
<path d="M-407.534 2293.55V-304.712H1413.05C1407.67 -309.111 1402.26 -313.454 1396.82 -317.712H-421.18V2306.54H1585.64C1589.15 2302.41 1592.74 2298.05 1596.46 2293.55H-407.535L-407.534 2293.55Z" fill="#9FD0F7"/>
<path d="M1027.16 -311.225H975.26V2300.02H1027.16V-311.225Z" fill="#9FD0F7"/>
<path d="M902.905 149.454H-334.051V172.696H902.905V149.454Z" fill="#D5E5FB"/>
<path d="M902.905 707.743H-334.051V730.974H902.905V707.743Z" fill="#D5E5FB"/>
<path d="M902.905 1266.02H-334.051V1289.28H902.905V1266.02Z" fill="#D5E5FB"/>
<path d="M706.859 489.095H442.231V707.753H706.859V489.095Z" fill="#DFEBFC"/>
<path d="M229.272 707.744H158.106C144.431 707.744 133.344 697.194 133.344 684.179V471.618C133.344 458.603 144.431 448.054 158.106 448.054H229.272C242.946 448.054 254.034 458.603 254.034 471.618V684.179C254.034 697.194 242.946 707.744 229.272 707.744Z" fill="#DFEBFC"/>
<path d="M204.774 448.062H182.599C179.328 448.062 176.653 445.529 176.653 442.406V400.714C176.653 397.591 179.328 395.059 182.599 395.059H204.774C208.044 395.059 210.72 397.591 210.72 400.714V442.406C210.72 445.529 208.044 448.062 204.774 448.062Z" fill="#DFEBFC"/>
<path d="M82.1853 707.744H11.0192C-2.65456 707.744 -13.7129 697.194 -13.7129 684.179V471.618C-13.7129 458.603 -2.65456 448.054 11.0192 448.054H82.1853C95.8591 448.054 106.947 458.603 106.947 471.618V684.179C106.947 697.194 95.8591 707.744 82.1853 707.744Z" fill="#DFEBFC"/>
<path d="M57.6868 448.062H35.5097C32.2402 448.062 29.5645 445.529 29.5645 442.406V400.714C29.5645 397.591 32.2402 395.059 35.5097 395.059H57.6868C60.9859 395.059 63.6318 397.591 63.6318 400.714V442.406C63.6318 445.529 60.9859 448.062 57.6868 448.062Z" fill="#DFEBFC"/>
<path d="M706.859 -69.2065H442.231V149.454H706.859V-69.2065Z" fill="#DFEBFC"/>
<path d="M373.685 149.454H157.631C138.309 149.454 122.643 134.544 122.643 116.151V85.8636C122.643 67.4707 138.309 52.5601 157.631 52.5601H373.685C393.007 52.5601 408.673 67.4707 408.673 85.8636V116.151C408.673 134.544 393.007 149.454 373.685 149.454Z" fill="#DFEBFC"/>
<path d="M225.107 52.558H9.05304C-10.2693 52.558 -25.9355 37.648 -25.9355 19.2551V-11.0286C-25.9355 -29.4215 -10.2693 -44.3315 9.05304 -44.3315H225.107C244.459 -44.3315 260.095 -29.4215 260.095 -11.0286V19.2551C260.095 37.648 244.459 52.558 225.107 52.558Z" fill="#DFEBFC"/>
<path d="M49.2435 149.454H-164.967C-184.795 149.454 -200.877 134.145 -200.877 115.26V86.7547C-200.877 67.8692 -184.795 52.5601 -164.967 52.5601H49.2435C69.0711 52.5601 85.154 67.8692 85.154 86.7547V115.26C85.154 134.145 69.0711 149.454 49.2435 149.454Z" fill="#DFEBFC"/>
<path d="M607.068 1261.22H303.231C276.061 1261.22 254.033 1240.25 254.033 1214.39V1171.81C254.033 1145.93 276.061 1124.96 303.231 1124.96H607.068C634.239 1124.96 656.266 1145.93 656.266 1171.81V1214.39C656.266 1240.25 634.239 1261.22 607.068 1261.22Z" fill="#DFEBFC"/>
<path d="M398.146 1124.93H94.3083C67.1387 1124.93 45.1113 1103.96 45.1113 1078.1V1035.53C45.1113 1009.67 67.1387 988.701 94.3083 988.701H398.146C425.316 988.701 447.343 1009.67 447.343 1035.53V1078.1C447.343 1103.96 425.316 1124.93 398.146 1124.93Z" fill="#DFEBFC"/>
<path d="M150.824 1261.22H-150.366C-178.28 1261.22 -200.872 1239.69 -200.872 1213.15V1173.06C-200.872 1146.49 -178.28 1124.96 -150.366 1124.96H150.824C178.738 1124.96 201.359 1146.49 201.359 1173.06V1213.15C201.359 1239.69 178.738 1261.22 150.824 1261.22Z" fill="#DFEBFC"/>
<path d="M574.489 1040.41C569.851 1018.2 581.564 1013 581.564 1013C581.564 1013 815.335 942.72 834.836 934.147C854.366 925.603 1005.26 732.31 1005.26 732.31C1005.26 732.31 1062.36 652.655 1119.05 661.841C1168.34 669.819 1191.59 702.792 1202.41 735.591C1215.28 774.635 1201.31 817.215 1167.74 842.876C1092.48 900.451 941.554 1014.19 904.515 1029.61C821.993 1063.9 588.817 1069.81 588.817 1069.81C588.817 1069.81 578.145 1057.84 574.489 1040.41V1040.41Z" fill="#DFE8FA"/>
<path d="M567.264 1010.84C555.522 1004.92 529.005 991.966 528.203 995.672C527.638 998.332 529.511 1002.49 533.048 1006.65C517.59 1003.2 502.133 1001.59 467.56 1012.34C460.664 1014.51 454.717 1019.13 451.597 1025.38C448.713 1031.18 448.238 1038.03 458.018 1042.3C477.519 1050.79 471.425 1045.01 498.625 1057.55C525.855 1070.08 557.157 1070.34 574.071 1057.18L598.209 1050.28L596.099 1011.29C596.099 1011.29 581.829 1011.37 567.264 1010.84Z" fill="#ED975D"/>
<path d="M1184.33 629.671C1184.33 629.671 1125.68 695.873 1051.03 668.18C1051.03 668.18 1034.95 631.205 1034.74 603.951C1034.71 600.595 1034.66 597.347 1034.6 594.255C1034.21 563.564 1033.11 546.345 1033.11 546.345L1033.2 546.328C1036.59 544.981 1147.35 501.707 1147.23 505.304C1145.36 588.311 1184.33 629.671 1184.33 629.671V629.671Z" fill="#FFB5AE"/>
<path d="M1136.11 525.114C1125.44 543.951 1088.82 580.807 1034.6 594.272C1034.21 563.581 1033.11 546.362 1033.11 546.362L1033.2 546.345C1036.26 545.564 1139.29 519.56 1136.11 525.114V525.114Z" fill="#FAA39E"/>
<path d="M1009.92 543.171C1009.92 543.171 1134.48 571.039 1151.51 496.959C1168.55 422.878 1196.1 376.582 1117.3 355.657C1038.52 334.732 1016.49 359.771 1004.51 383.183C992.504 406.592 977.968 534.013 1009.92 543.171Z" fill="#FFB5AE"/>
<path d="M1147.26 517.137C1148.95 518.173 1158.94 535.069 1209.68 438.849C1217.65 423.746 1239.89 382.01 1221.31 353.137C1202.76 324.267 1144.64 307.729 1089.95 297.849C1035.25 287.969 1032.84 313.53 1001.48 340.55C999.22 342.485 999.19 345.696 998.149 348.019C989.023 368.18 1003.47 390.967 1026.48 392.515C1046.54 393.861 1060.34 388.344 1072.58 392.014C1092.26 397.916 1099.22 427.442 1100.68 436.906C1102.16 446.369 1104.42 454.234 1129.18 445.78C1153.95 437.33 1140.36 479.166 1136.41 487.167C1136.41 487.167 1133.05 508.48 1147.26 517.137V517.137Z" fill="#411F38"/>
<path d="M983.377 1267.49C983.377 1267.49 994.049 1394.24 1006.59 1546.62C1023.66 1753.61 1044.17 2007.84 1046.19 2056C1049.7 2139.63 1063.79 2273.42 1063.79 2273.42C1063.79 2273.42 1097.14 2305.2 1163.94 2291.81C1163.94 2291.81 1223.45 2100.84 1240.45 1898.77C1240.72 1895.46 1240.99 1892.13 1241.23 1888.79C1257.04 1683.07 1281.66 1249.91 1281.66 1249.91L983.377 1267.48V1267.49Z" fill="#4850E1"/>
<path d="M983.377 1267.49C983.377 1267.49 994.049 1394.24 1006.59 1546.62L1240.45 1898.77C1240.72 1895.46 1240.99 1892.13 1241.23 1888.79C1257.04 1683.07 1281.66 1249.91 1281.66 1249.91L983.377 1267.48V1267.49Z" fill="#3F47D6"/>
<path d="M1049.91 1240.43C1049.91 1240.43 1157.96 1664.5 1240.45 1898.76C1322.95 2133.03 1326.42 2246.42 1326.42 2246.42C1326.42 2246.42 1419.91 2229.05 1430.05 2211.71C1430.05 2211.71 1462.07 1810.49 1398.51 1695.82C1362.57 1631.03 1368.64 1480.91 1368.64 1412.5C1368.64 1285.78 1327.08 1159.94 1327.08 1159.94L1049.91 1240.43V1240.43Z" fill="#4850E1"/>
<path d="M1419.77 1438.92C1421.05 1446.7 1020.39 1518.9 966.644 1464.01C965.603 1462.96 959.955 1304.64 955.377 1181.29C953.325 1123.91 951.423 1074.11 950.382 1051.22C950.115 1045.48 949.907 1041.44 949.758 1039.4C949.551 1036.74 949.343 1034.11 949.164 1031.45C945.894 986.605 943.516 942.497 942.773 903.227C942.148 869.191 942.654 838.806 944.943 814.816C945.359 809.894 945.894 805.282 946.519 800.922C954.693 741.989 984.687 700.56 1012.81 669.415L1036.05 644.951C1062.45 647.147 1089.59 642.79 1115.4 627.045C1143.31 610.016 1170.39 615.001 1176.04 618.014C1219.29 642.099 1257.1 680.234 1280.56 760.661C1293.19 803.92 1418.46 1430.37 1419.77 1438.92V1438.92Z" fill="white"/>
<path d="M1069.91 279.671C1069.91 279.671 1061.97 213.614 1107.01 174.932C1152.05 136.251 1212.78 144.552 1246.76 180.095C1257.28 191.087 1317.15 179.979 1351.19 214.479C1385.25 248.979 1379.28 303.708 1367.6 328.795C1356.86 351.794 1392.74 401.034 1344.26 438.055C1287.42 481.438 1200.62 444.588 1200.62 444.588C1200.62 444.588 1136.11 280.194 1069.91 279.671V279.671Z" fill="#9FD0F7"/>
<path d="M1001.4 339.311C1001.4 339.311 1188.14 354.993 1178.03 492.805L1253.63 390.489C1253.63 390.489 1248.1 259.014 1073.22 257.197L1001.4 339.311Z" fill="white"/>
<path d="M1196.93 865.411C1196.93 865.411 1137 1129.46 955.373 1181.27C953.322 1123.89 951.42 1074.1 950.379 1051.21L1196.93 865.411Z" fill="#DFE8FA"/>
<path d="M732.185 1190.99H85.1572C115.151 1052.59 240.657 947.453 393.245 940.776C398.358 940.55 403.5 940.437 408.673 940.437C568.127 940.437 701.184 1047.95 732.189 1190.99H732.185Z" fill="#26A9D6"/>
<path d="M732.186 1190.99H234.531C253.884 1084.05 312.891 993.683 393.242 940.776C398.355 940.55 403.498 940.437 408.67 940.437C568.124 940.437 701.181 1047.95 732.186 1190.99Z" fill="#38BDEB"/>
<path d="M756.623 1215.07H46.3948C39.4386 1215.07 33.7314 1209.63 33.7314 1203.01C33.7314 1196.37 39.4386 1190.93 46.3948 1190.93H756.623C763.609 1190.93 769.316 1196.37 769.316 1203.01C769.316 1209.63 763.609 1215.07 756.623 1215.07Z" fill="#38BDEB"/>
<path d="M399.992 953.088C392.976 953.088 387.238 947.627 387.238 940.922V917.581C387.238 910.904 392.976 905.443 399.992 905.443C407.037 905.443 412.774 910.904 412.774 917.581V940.922C412.774 947.627 407.037 953.088 399.992 953.088Z" fill="#38BDEB"/>
<path d="M636.169 1138.52C623.535 1134.64 595.057 1126.27 594.968 1130.03C594.879 1132.75 597.495 1136.54 601.716 1140.05C585.871 1139.2 570.355 1140.16 538.279 1156.48C531.858 1159.74 526.864 1165.25 524.931 1171.93C523.148 1178.13 523.951 1184.95 534.326 1187.52C555.105 1192.7 548.03 1188 577.132 1195.87C606.205 1203.7 637.091 1198.78 651.359 1183.02L673.863 1172.24L664.678 1134.19C664.678 1134.19 650.647 1136.65 636.169 1138.52V1138.52Z" fill="#FFB5AE"/>
<path d="M648.685 1157.96C640.094 1136.88 650.647 1129.81 650.647 1129.81C650.647 1129.81 868.039 1021.99 885.726 1010.33C903.384 998.675 1016.73 783.398 1016.73 783.398C1016.73 783.398 1058.44 695.519 1115.96 695.196C1165.93 694.916 1194.85 723.531 1211.47 754.059C1231.27 790.386 1225.29 834.638 1196.94 865.446C1133.29 934.564 1005.41 1071.53 971.726 1092.8C896.725 1140.22 668.185 1184.56 668.185 1184.56C668.185 1184.56 655.462 1174.54 648.685 1157.96V1157.96Z" fill="white"/>
<path d="M1156.66 576.55C1156.66 576.55 1184.6 602.227 1176.04 618.038C1176.04 618.038 1111.08 665.954 1020.3 660.697C1020.3 660.697 1029.34 646.33 1044.11 639.65C1058.88 632.973 1139.95 599.707 1156.66 576.55Z" fill="#BECEEA"/>
<path d="M877.046 1209.68H-2606.69V1310.46H877.046V1209.68Z" fill="#233862"/>
<path d="M877.76 1249.15H742.623V2381.81H877.76V1249.15Z" fill="#233862"/>
</svg>
